<?xml version="1.0"?>
<!-- Generated by SVGo -->
<svg width="76.701mm" height="95.751mm"
     viewBox="0.000 0.000 76.701 95.751"
     xmlns="http://www.w3.org/2000/svg" 
     xmlns:xlink="http://www.w3.org/1999/xlink">
<polygon points="71.701,90.751 5.000,90.751 5.000,5.000 71.701,5.000" style="fill:none;stroke-width:0.050000mm;stroke:black"/>
<polygon points="12.374,69.525 12.374,70.525 11.574,70.525 11.574,73.475 12.374,73.475 12.374,79.425 11.574,79.425 11.574,82.375 12.374,82.375 12.374,83.375 26.224,83.375 26.224,82.375 27.025,82.375 27.025,79.425 26.224,79.425 26.224,73.475 27.025,73.475 27.025,70.525 26.224,70.525 26.224,69.525" style="fill:none;stroke-width:0.050000mm;stroke:black"/>
<polygon points="31.424,69.525 31.424,70.525 30.624,70.525 30.624,73.475 31.424,73.475 31.424,79.425 30.624,79.425 30.624,82.375 31.424,82.375 31.424,83.375 45.274,83.375 45.274,82.375 46.074,82.375 46.074,79.425 45.274,79.425 45.274,73.475 46.074,73.475 46.074,70.525 45.274,70.525 45.274,69.525" style="fill:none;stroke-width:0.050000mm;stroke:black"/>
<polygon points="50.474,69.525 50.474,70.525 49.674,70.525 49.674,73.475 50.474,73.475 50.474,79.425 49.674,79.425 49.674,82.375 50.474,82.375 50.474,83.375 64.324,83.375 64.324,82.375 65.123,82.375 65.123,79.425 64.324,79.425 64.324,73.475 65.123,73.475 65.123,70.525 64.324,70.525 64.324,69.525" style="fill:none;stroke-width:0.050000mm;stroke:black"/>
<polygon points="12.374,50.475 12.374,51.475 11.574,51.475 11.574,54.425 12.374,54.425 12.374,60.375 11.574,60.375 11.574,63.325 12.374,63.325 12.374,64.325 26.224,64.325 26.224,63.325 27.025,63.325 27.025,60.375 26.224,60.375 26.224,54.425 27.025,54.425 27.025,51.475 26.224,51.475 26.224,50.475" style="fill:none;stroke-width:0.050000mm;stroke:black"/>
<polygon points="31.424,50.475 31.424,51.475 30.624,51.475 30.624,54.425 31.424,54.425 31.424,60.375 30.624,60.375 30.624,63.325 31.424,63.325 31.424,64.325 45.274,64.325 45.274,63.325 46.074,63.325 46.074,60.375 45.274,60.375 45.274,54.425 46.074,54.425 46.074,51.475 45.274,51.475 45.274,50.475" style="fill:none;stroke-width:0.050000mm;stroke:black"/>
<polygon points="50.474,50.475 50.474,51.475 49.674,51.475 49.674,54.425 50.474,54.425 50.474,60.375 49.674,60.375 49.674,63.325 50.474,63.325 50.474,64.325 64.324,64.325 64.324,63.325 65.123,63.325 65.123,60.375 64.324,60.375 64.324,54.425 65.123,54.425 65.123,51.475 64.324,51.475 64.324,50.475" style="fill:none;stroke-width:0.050000mm;stroke:black"/>
<polygon points="12.374,31.425 12.374,32.424 11.574,32.424 11.574,35.375 12.374,35.375 12.374,41.325 11.574,41.325 11.574,44.275 12.374,44.275 12.374,45.275 26.224,45.275 26.224,44.275 27.025,44.275 27.025,41.325 26.224,41.325 26.224,35.375 27.025,35.375 27.025,32.424 26.224,32.424 26.224,31.425" style="fill:none;stroke-width:0.050000mm;stroke:black"/>
<polygon points="31.424,31.425 31.424,32.424 30.624,32.424 30.624,35.375 31.424,35.375 31.424,41.325 30.624,41.325 30.624,44.275 31.424,44.275 31.424,45.275 45.274,45.275 45.274,44.275 46.074,44.275 46.074,41.325 45.274,41.325 45.274,35.375 46.074,35.375 46.074,32.424 45.274,32.424 45.274,31.425" style="fill:none;stroke-width:0.050000mm;stroke:black"/>
<polygon points="12.375,12.375 12.375,13.375 11.575,13.375 11.575,16.325 12.375,16.325 12.375,22.275 11.575,22.275 11.575,25.225 12.375,25.225 12.375,26.225 26.225,26.225 26.225,25.225 27.025,25.225 27.025,22.275 26.225,22.275 26.225,16.325 27.025,16.325 27.025,13.375 26.225,13.375 26.225,12.375" style="fill:none;stroke-width:0.050000mm;stroke:black"/>
<polygon points="31.425,12.375 31.425,13.375 30.625,13.375 30.625,16.325 31.425,16.325 31.425,22.275 30.625,22.275 30.625,25.225 31.425,25.225 31.425,26.225 45.275,26.225 45.275,25.225 46.075,25.225 46.075,22.275 45.275,22.275 45.275,16.325 46.075,16.325 46.075,13.375 45.275,13.375 45.275,12.375" style="fill:none;stroke-width:0.050000mm;stroke:black"/>
</svg>
