<?xml version="1.0"?>
<!-- Generated by SVGo -->
<svg width="87.151mm" height="106.201mm"
     viewBox="0.000 0.000 87.151 106.201"
     xmlns="http://www.w3.org/2000/svg" 
     xmlns:xlink="http://www.w3.org/1999/xlink">
<polygon points="82.151,101.201 5.000,101.201 5.000,5.000 82.151,5.000" style="fill:none;stroke-width:0.050000mm;stroke:black"/>
<polygon points="80.341,98.749 80.063,98.891 79.841,99.113 79.699,99.391 79.651,99.701 79.699,100.010 79.841,100.288 80.063,100.510 80.341,100.652 80.651,100.701 80.960,100.652 81.238,100.510 81.460,100.288 81.602,100.010 81.651,99.701 81.602,99.391 81.460,99.113 81.238,98.891 80.960,98.749 80.651,98.701" style="fill:none;stroke-width:0.050000mm;stroke:black"/>
<polygon points="6.190,98.749 5.912,98.891 5.690,99.113 5.548,99.391 5.500,99.701 5.548,100.010 5.690,100.288 5.912,100.510 6.190,100.652 6.500,100.701 6.809,100.652 7.087,100.510 7.309,100.288 7.451,100.010 7.500,99.701 7.451,99.391 7.309,99.113 7.087,98.891 6.809,98.749 6.500,98.701" style="fill:none;stroke-width:0.050000mm;stroke:black"/>
<polygon points="17.525,74.675 17.525,75.675 16.724,75.675 16.724,78.774 17.525,78.774 17.525,84.575 16.724,84.575 16.724,87.675 17.525,87.675 17.525,88.675 31.525,88.675 31.525,87.675 32.323,87.675 32.323,84.575 31.525,84.575 31.525,78.774 32.323,78.774 32.323,75.675 31.525,75.675 31.525,74.675" style="fill:none;stroke-width:0.050000mm;stroke:black"/>
<polygon points="36.575,74.675 36.575,75.675 35.775,75.675 35.775,78.774 36.575,78.774 36.575,84.575 35.775,84.575 35.775,87.675 36.575,87.675 36.575,88.675 50.575,88.675 50.575,87.675 51.375,87.675 51.375,84.575 50.575,84.575 50.575,78.774 51.375,78.774 51.375,75.675 50.575,75.675 50.575,74.675" style="fill:none;stroke-width:0.050000mm;stroke:black"/>
<polygon points="55.625,74.675 55.625,75.675 54.825,75.675 54.825,78.774 55.625,78.774 55.625,84.575 54.825,84.575 54.825,87.675 55.625,87.675 55.625,88.675 69.625,88.675 69.625,87.675 70.425,87.675 70.425,84.575 69.625,84.575 69.625,78.774 70.425,78.774 70.425,75.675 69.625,75.675 69.625,74.675" style="fill:none;stroke-width:0.050000mm;stroke:black"/>
<polygon points="17.525,55.625 17.525,56.625 16.724,56.625 16.724,59.725 17.525,59.725 17.525,65.525 16.724,65.525 16.724,68.625 17.525,68.625 17.525,69.625 31.525,69.625 31.525,68.625 32.323,68.625 32.323,65.525 31.525,65.525 31.525,59.725 32.323,59.725 32.323,56.625 31.525,56.625 31.525,55.625" style="fill:none;stroke-width:0.050000mm;stroke:black"/>
<polygon points="36.575,55.625 36.575,56.625 35.775,56.625 35.775,59.725 36.575,59.725 36.575,65.525 35.775,65.525 35.775,68.625 36.575,68.625 36.575,69.625 50.575,69.625 50.575,68.625 51.375,68.625 51.375,65.525 50.575,65.525 50.575,59.725 51.375,59.725 51.375,56.625 50.575,56.625 50.575,55.625" style="fill:none;stroke-width:0.050000mm;stroke:black"/>
<polygon points="55.625,55.625 55.625,56.625 54.825,56.625 54.825,59.725 55.625,59.725 55.625,65.525 54.825,65.525 54.825,68.625 55.625,68.625 55.625,69.625 69.625,69.625 69.625,68.625 70.425,68.625 70.425,65.525 69.625,65.525 69.625,59.725 70.425,59.725 70.425,56.625 69.625,56.625 69.625,55.625" style="fill:none;stroke-width:0.050000mm;stroke:black"/>
<polygon points="17.525,36.575 17.525,37.575 16.724,37.575 16.724,40.675 17.525,40.675 17.525,46.475 16.724,46.475 16.724,49.575 17.525,49.575 17.525,50.575 31.525,50.575 31.525,49.575 32.323,49.575 32.323,46.475 31.525,46.475 31.525,40.675 32.323,40.675 32.323,37.575 31.525,37.575 31.525,36.575" style="fill:none;stroke-width:0.050000mm;stroke:black"/>
<polygon points="36.575,36.575 36.575,37.575 35.775,37.575 35.775,40.675 36.575,40.675 36.575,46.475 35.775,46.475 35.775,49.575 36.575,49.575 36.575,50.575 50.575,50.575 50.575,49.575 51.375,49.575 51.375,46.475 50.575,46.475 50.575,40.675 51.375,40.675 51.375,37.575 50.575,37.575 50.575,36.575" style="fill:none;stroke-width:0.050000mm;stroke:black"/>
<polygon points="17.525,17.525 17.525,18.525 16.724,18.525 16.724,21.625 17.525,21.625 17.525,27.424 16.724,27.424 16.724,30.525 17.525,30.525 17.525,31.525 31.525,31.525 31.525,30.525 32.323,30.525 32.323,27.424 31.525,27.424 31.525,21.625 32.323,21.625 32.323,18.525 31.525,18.525 31.525,17.525" style="fill:none;stroke-width:0.050000mm;stroke:black"/>
<polygon points="36.575,17.525 36.575,18.525 35.775,18.525 35.775,21.625 36.575,21.625 36.575,27.424 35.775,27.424 35.775,30.525 36.575,30.525 36.575,31.525 50.575,31.525 50.575,30.525 51.375,30.525 51.375,27.424 50.575,27.424 50.575,21.625 51.375,21.625 51.375,18.525 50.575,18.525 50.575,17.525" style="fill:none;stroke-width:0.050000mm;stroke:black"/>
<polygon points="80.341,5.548 80.063,5.690 79.841,5.912 79.699,6.190 79.651,6.500 79.699,6.809 79.841,7.087 80.063,7.309 80.341,7.451 80.651,7.500 80.960,7.451 81.238,7.309 81.460,7.087 81.602,6.809 81.651,6.500 81.602,6.190 81.460,5.912 81.238,5.690 80.960,5.548 80.651,5.500" style="fill:none;stroke-width:0.050000mm;stroke:black"/>
<polygon points="6.190,5.548 5.912,5.690 5.690,5.912 5.548,6.190 5.500,6.500 5.548,6.809 5.690,7.087 5.912,7.309 6.190,7.451 6.500,7.500 6.809,7.451 7.087,7.309 7.309,7.087 7.451,6.809 7.500,6.500 7.451,6.190 7.309,5.912 7.087,5.690 6.809,5.548 6.500,5.500" style="fill:none;stroke-width:0.050000mm;stroke:black"/>
</svg>
