<?xml version="1.0"?>
<!-- Generated by SVGo -->
<svg width="87.151mm" height="106.201mm"
     viewBox="0.000 0.000 87.151 106.201"
     xmlns="http://www.w3.org/2000/svg" 
     xmlns:xlink="http://www.w3.org/1999/xlink">
<polygon points="82.151,101.201 5.000,101.201 5.000,5.000 82.151,5.000" style="fill:none;stroke-width:0.050000mm;stroke:black"/>
<polygon points="80.341,98.749 80.063,98.891 79.841,99.113 79.699,99.391 79.651,99.701 79.699,100.010 79.841,100.288 80.063,100.510 80.341,100.652 80.651,100.701 80.960,100.652 81.238,100.510 81.460,100.288 81.602,100.010 81.651,99.701 81.602,99.391 81.460,99.113 81.238,98.891 80.960,98.749 80.651,98.701" style="fill:none;stroke-width:0.050000mm;stroke:black"/>
<polygon points="6.190,98.749 5.912,98.891 5.690,99.113 5.548,99.391 5.500,99.701 5.548,100.010 5.690,100.288 5.912,100.510 6.190,100.652 6.500,100.701 6.809,100.652 7.087,100.510 7.309,100.288 7.451,100.010 7.500,99.701 7.451,99.391 7.309,99.113 7.087,98.891 6.809,98.749 6.500,98.701" style="fill:none;stroke-width:0.050000mm;stroke:black"/>
<polygon points="14.998,14.998 14.998,91.201 72.151,91.201 72.151,53.099 53.101,53.099 53.101,14.998" style="fill:none;stroke-width:0.050000mm;stroke:black"/>
<polygon points="80.341,5.548 80.063,5.690 79.841,5.912 79.699,6.190 79.651,6.500 79.699,6.809 79.841,7.087 80.063,7.309 80.341,7.451 80.651,7.500 80.960,7.451 81.238,7.309 81.460,7.087 81.602,6.809 81.651,6.500 81.602,6.190 81.460,5.912 81.238,5.690 80.960,5.548 80.651,5.500" style="fill:none;stroke-width:0.050000mm;stroke:black"/>
<polygon points="6.190,5.548 5.912,5.690 5.690,5.912 5.548,6.190 5.500,6.500 5.548,6.809 5.690,7.087 5.912,7.309 6.190,7.451 6.500,7.500 6.809,7.451 7.087,7.309 7.309,7.087 7.451,6.809 7.500,6.500 7.451,6.190 7.309,5.912 7.087,5.690 6.809,5.548 6.500,5.500" style="fill:none;stroke-width:0.050000mm;stroke:black"/>
</svg>
